<svg id="图层_1" data-name="图层 1" xmlns="http://www.w3.org/2000/svg" viewBox="0 0 79.16 79.15"><defs><style>.cls-1{fill:none;}.cls-1,.cls-2{stroke:#fff;}.cls-2{fill:#fff;stroke-miterlimit:10;}</style></defs><path class="cls-1" d="M27.76,51.16l-.21.89,9.59-2.64c3.73-.78,5.63-1.2,5.69-1.28a2,2,0,0,0,.24-1,8.77,8.77,0,0,0-.77-3,5.85,5.85,0,0,1,1.39,1,7,7,0,0,1,1.19,3.06l2.7-.21h.74a1.7,1.7,0,0,0,.92-.18q.27-.16.27-2.58c0-.31-.32-.81-.95-1.48,1.47.3,2.34.73,2.61,1.3a7.18,7.18,0,0,1,.15.78l0,.14a.23.23,0,0,1,0,.09,4.28,4.28,0,0,0-.12,1.13.79.79,0,0,0,.89.89c.3,0,1.55-.09,3.74-.27l.45,0,2.85.11,5.25.24a18,18,0,0,1,3.8.57,18,18,0,0,0,2.34.53c2.4.1,3.62.16,3.68.18a.89.89,0,0,1,.63,1A2.51,2.51,0,0,1,73.91,52a2.89,2.89,0,0,1-1.84.95,8.79,8.79,0,0,1-3.24-1.16,16.5,16.5,0,0,0-5.49-1.36l-4.12-.48a51.24,51.24,0,0,0-6.5-.53c-.66,0-1,.11-1.16.32l0,.06h0l.95,14.69-.21,2.76a27.91,27.91,0,0,1-.21,2.94,12.43,12.43,0,0,1-1.48,1.57c-.5.7-.78,1-.86,1s-.29-.19-.57-.56c-.67-.93-1-1.5-1.15-1.69q-.6-1.24-.6-6.38a24.56,24.56,0,0,1,.21-3.68l1.54-10.54Q47.5,50,46.66,50c-.89,0-1.4.06-1.54.24l-.71,2.58-.78,1.63a21.92,21.92,0,0,1-1.92,3.68Q39.21,61,37,61a3.5,3.5,0,0,1-3.8-2.85h.71l-.45-.62a1.48,1.48,0,0,0,.78.3.21.21,0,0,0,.23-.24,2.54,2.54,0,0,0-.23-.68,7.44,7.44,0,0,0,1.78.29c1.11,0,2.26-.74,3.47-2.22a31.51,31.51,0,0,0,2.61-4.4,84.41,84.41,0,0,0-12.2,3.21,18.57,18.57,0,0,0-3,1.22,1.34,1.34,0,0,1-.54.2h-.06A.43.43,0,0,1,26,55s-.2-.57-.54-1.64a2,2,0,0,1-.26-.5C25.18,52.13,26,51.57,27.76,51.16ZM48.92,34.21l2,0c1.26,0,3.62-.11,7.06-.33l.65,0a4.63,4.63,0,0,1,3.21,1,.83.83,0,0,1,.26.63,1,1,0,0,1-.38.8.93.93,0,0,1-.57.24,6.81,6.81,0,0,1-2-.6q-1.78-.74-9.74-.74a32,32,0,0,0-7.42,1A32.19,32.19,0,0,0,34.2,39a7.2,7.2,0,0,1-1.55.71c-.37,0-.63-.7-.77-2.11l0-.17,12.88-2.64a3.82,3.82,0,0,0,1.37-.39l.29-1.6a8.43,8.43,0,0,0,.27-1,2.46,2.46,0,0,0-.3-.86l-.41-1c0-.2.25-.3.74-.3A3.89,3.89,0,0,1,49.6,30.8a1.54,1.54,0,0,1,.5,1.07A4.93,4.93,0,0,1,48.92,34.21ZM34,44.12l.24-.74a25.43,25.43,0,0,0,7-2.85,44.61,44.61,0,0,0,4.72-4.24,1.44,1.44,0,0,1,1-.48c.67,0,1,.26,1,.78s-.6,1.08-1.78,2.07q-1.42,1.22-3.48,3.15A55.85,55.85,0,0,1,51.53,41h.41c1.05,0,1.58.26,1.58.77,0,.32-.28.47-.83.47l-.51,0a9,9,0,0,0-1.07-.06,48.38,48.38,0,0,0-10,1.27A54.36,54.36,0,0,0,34,45.64Zm15.91-6.94a25.84,25.84,0,0,1,8.6,4.3c1.57,1.17,2.35,2,2.35,2.58a1.17,1.17,0,0,1-.09.39,6,6,0,0,1-2.41,1.25,1.77,1.77,0,0,1-1-.45q-.21-.18-4.16-4.36l-4.27-3.27c0-.07,0-.12-.06-.14l0,0a0,0,0,0,1,0,0Z" transform="translate(-10.43 -10.43)"/><path class="cls-2" d="M87.28,84.11a5.6,5.6,0,0,1-.67,1.14v1.36H84.89l-.32.13c-.31.18-.61.37-.93.53a5.83,5.83,0,0,1-4.42.59,6.7,6.7,0,0,1-2.36-1.25h-.34a4,4,0,0,1-2.88.89c-1.17-.13-2.32-.31-3.48-.49q-.45-.06-.06,0L69,86.86c-.26,0-.52-.09-.77-.15l-.28-.1h-24a4.52,4.52,0,0,1-3.23.58,6.06,6.06,0,0,1-.86.65,6.82,6.82,0,0,1-4.23.88,3.76,3.76,0,0,1-1.76-.12l-1.19-.51a5.5,5.5,0,0,1-1.95-.31A6.09,6.09,0,0,1,29.21,87c-.24,0-.47,0-.7,0a8.38,8.38,0,0,1-2.44-.31l-.35-.12H13.39v-32A15.53,15.53,0,0,1,12.61,51a21.39,21.39,0,0,1,.78-4.09v-6.4a5.13,5.13,0,0,1-1-4.48c.22-.78.53-1.54.81-2.3a5.22,5.22,0,0,1,.14-4.15V26.53A5.07,5.07,0,0,1,12.67,25l-.18-1.33a3.71,3.71,0,0,1,.3-1.62,4.8,4.8,0,0,1-.53-2.21l0-.18A5.09,5.09,0,0,1,12,18.11l.18-1.33a4.42,4.42,0,0,1,1.18-2.08V13.39h2a4.2,4.2,0,0,1,1-.19,4,4,0,0,1,1-.08,6.85,6.85,0,0,1,0-.91,7.41,7.41,0,0,1-1.89-1.16l-.12-.12h-.79a4.43,4.43,0,0,1-3,2.49,3,3,0,0,1,0,.52,7.28,7.28,0,0,1-.7,2.9,4.28,4.28,0,0,1-.07.72v8.16a5.64,5.64,0,0,1,1.36,4.67,6.38,6.38,0,0,1-1.36,3V61.32c.09.19.17.39.25.59.52,1.49.64,3.37,1.23,4.49a5.1,5.1,0,0,1-.73,6,5.84,5.84,0,0,1-.75,3.21v.11c1.36,2.37,1.33,5.25.94,8a1.89,1.89,0,0,1,0,.23,5.31,5.31,0,0,1,1.31,3.11,5,5,0,0,1,2.33,1.31l.33.39a3.22,3.22,0,0,0,.32.32H20l1.17-.28a5.18,5.18,0,0,1,2.69-.85,5.11,5.11,0,0,1,2.51.67,7.13,7.13,0,0,1,1.53.46H45.18c.19-.09.37-.18.57-.26,1.31-.5,2.71-.54,4.06-.92a2.61,2.61,0,0,1,.27-.06A4.63,4.63,0,0,1,52.76,87a46.48,46.48,0,0,1,7.36.53,3.9,3.9,0,0,1,2.51,1.53h1.81l.18-.1a11.3,11.3,0,0,1,5.19-1,5.09,5.09,0,0,1,3.1,1.13H84.24a10.45,10.45,0,0,1,2.69-1.84,5.82,5.82,0,0,1,.49-1.34c.08-.15.19-.29.28-.43A5.72,5.72,0,0,1,87.28,84.11Z" transform="translate(-10.43 -10.43)"/><path class="cls-2" d="M88.74,33.08a.9.9,0,0,1,.33-.64V29.29a5.67,5.67,0,0,1-.76-1.49,4.37,4.37,0,0,1,.12-3,6,6,0,0,1-.12-3.6,4.69,4.69,0,0,1,.58-1.26,12.14,12.14,0,0,1-.71-2.16,7.34,7.34,0,0,1,.24-3.52,5.21,5.21,0,0,1-.86-1.31,18.12,18.12,0,0,1-2.74-.51c-.53-.14-1.08-.26-1.6-.42l-.12,0c-.21,0-.43,0-.64,0a4.76,4.76,0,0,1-3-1.05H34.29l-.16.06a12.63,12.63,0,0,1-6.32.64l.07.17A4.68,4.68,0,0,1,28,13.19a5.51,5.51,0,0,1,.8.2h22a5.77,5.77,0,0,1,3.86-1.9A23.84,23.84,0,0,1,63,12.69a6.34,6.34,0,0,1,1.56-.16c.39,0,.8.09,1.21.17l.37-.08a21.69,21.69,0,0,1,3.12-.09,5.31,5.31,0,0,1,1.65.32,10,10,0,0,1,2.48-.65,5,5,0,0,1,5.64.74,6.82,6.82,0,0,1,1.41.45h6.2V32.08a2.49,2.49,0,0,1,.76.4,1,1,0,0,1,.38.69h1A.24.24,0,0,1,88.74,33.08Z" transform="translate(-10.43 -10.43)"/><path class="cls-2" d="M89.07,53.9V47.57a9.23,9.23,0,0,1-.55-5.92c.13-.56.31-1.1.48-1.64a1.38,1.38,0,0,1-.39-.41,2.74,2.74,0,0,1-.16-2.25l-.18-.59-.12-.41a1,1,0,0,1-.06-.37h-.92a2.08,2.08,0,0,1-.2,1.28,3.2,3.2,0,0,1-.36.52v9.75a10.51,10.51,0,0,1,.42,2.4,1,1,0,0,1,.29.4c.05.13.07.25.11.37h0v0a5.8,5.8,0,0,1,0,2.42,1.47,1.47,0,0,1-.16.43,5,5,0,0,1-.66,1.5V59a3.35,3.35,0,0,1,0,2V79.07a4.76,4.76,0,0,1,.92,2A4.71,4.71,0,0,1,89.07,79V65.44c-1.68-3-1.06-6.91-.53-10.14A3.81,3.81,0,0,1,89.07,53.9Z" transform="translate(-10.43 -10.43)"/></svg>